<svg width="54" height="54" viewBox="0 0 54 54" fill="none" xmlns="http://www.w3.org/2000/svg">
<path d="M9 18H4.5V38.25L14.1994 43.0997C16.6988 44.3494 19.4548 45 22.2492 45H40.5C42.9853 45 45 42.9853 45 40.5C45 38.0147 42.9853 36 40.5 36H36.9369C34.8411 36 32.7741 35.512 30.8995 34.5748L24.282 31.266C24.7147 30.8675 25.0721 30.3734 25.3188 29.7977C26.2494 27.6265 25.2542 25.1112 23.0901 24.1644L9 18Z" fill="#353945"/>
<path d="M27.8765 18.5332L36.6883 29.5478C37.4889 30.5486 39.0111 30.5486 39.8117 29.5478L48.6235 18.5332C49.1909 17.8239 49.5 16.9427 49.5 16.0344V13C49.5 10.7909 47.7091 9 45.5 9H42.7194C41.6585 9 40.6411 9.42143 39.8909 10.1716L39.6642 10.3983C38.8832 11.1793 37.6168 11.1793 36.8358 10.3983L36.6091 10.1716C35.8589 9.42143 34.8415 9 33.7806 9H31C28.7909 9 27 10.7909 27 13V16.0344C27 16.9427 27.3091 17.8239 27.8765 18.5332Z" fill="#FFC83A"/>
</svg>
