<svg width="54" height="54" viewBox="0 0 54 54" fill="none" xmlns="http://www.w3.org/2000/svg">
<path d="M27 49.5C39.4264 49.5 49.5 39.4264 49.5 27C49.5 18.9964 45.321 11.9688 39.0261 7.98018C35.5475 5.77609 31.4228 4.5 27 4.5C15.4186 4.5 5.88093 13.2501 4.63732 24.5C4.54658 25.3208 4.5 26.155 4.5 27C4.5 34.0682 7.75917 40.3751 12.8567 44.5C16.721 47.627 21.6418 49.5 27 49.5Z" fill="#353945"/>
<path d="M42 36.9998C39.2386 36.9998 37 34.7612 37 31.9998C37 29.2384 34.7614 26.9998 32 26.9998C29.2386 26.9998 27 24.7612 27 21.9998C27 19.2384 29.2386 16.9998 32 16.9998C34.7614 16.9998 37 14.7612 37 11.9998C37 10.3523 37.7968 8.89091 39.0261 7.97998C45.321 11.9686 49.5 18.9962 49.5 26.9998C49.5 30.5919 48.6582 33.9874 47.1612 36.9998H42Z" fill="#FFC83A"/>
<path d="M9.5 24.4998C12.2614 24.4998 14.5 26.7384 14.5 29.4998C14.5 32.2612 16.7386 34.4998 19.5 34.4998C22.2614 34.4998 24.5 36.7384 24.5 39.4998C24.5 42.2612 22.2614 44.4998 19.5 44.4998L12.8567 44.4998C7.75917 40.3749 4.5 34.068 4.5 26.9998C4.5 26.1548 4.54658 25.3206 4.63732 24.4998H9.5Z" fill="#FFC83A"/>
</svg>
