<svg width="54" height="54" viewBox="0 0 54 54" fill="none" xmlns="http://www.w3.org/2000/svg">
<path d="M13.5 18H9C6.51472 18 4.5 20.0147 4.5 22.5V42.75C4.5 45.2353 6.51472 47.25 9 47.25H13.5C15.9853 47.25 18 45.2353 18 42.75V22.5C18 20.0147 15.9853 18 13.5 18Z" fill="#353945"/>
<path d="M35.723 47.25H27.475C25.6982 47.25 23.9611 46.7241 22.4827 45.7385L19.0019 43.418C18.376 43.0007 18 42.2981 18 41.5458V23.0975C18 22.706 18.1022 22.3212 18.2965 21.9812L26.7121 7.25386C26.8901 6.94229 27.2215 6.75 27.5803 6.75H29.9896C34.4823 6.75 37.162 11.7571 34.6699 15.4952L31.5 20.25H43.7365C46.6641 20.25 48.8122 23.0012 48.1021 25.8414L44.4543 40.4328C43.4527 44.4393 39.8528 47.25 35.723 47.25Z" fill="#FFC83A"/>
</svg>
