<svg width="54" height="54" viewBox="0 0 54 54" fill="none" xmlns="http://www.w3.org/2000/svg">
<path fill-rule="evenodd" clip-rule="evenodd" d="M19.1251 36H15.3736C14.1865 36 13.0607 36.5273 12.3007 37.4393L4.98374 46.2196C3.89819 47.5223 4.8245 49.5 6.52018 49.5H47.48C49.1757 49.5 50.102 47.5223 49.0165 46.2196L41.6995 37.4393C40.9395 36.5273 39.8137 36 38.6266 36H34.8751C34.8751 40.3492 31.3493 43.875 27.0001 43.875C22.6509 43.875 19.1251 40.3492 19.1251 36Z" fill="#FFC83A"/>
<path fill-rule="evenodd" clip-rule="evenodd" d="M27 13.5C29.4853 13.5 31.5 11.4853 31.5 9C31.5 6.51472 29.4853 4.5 27 4.5C24.5147 4.5 22.5 6.51472 22.5 9C22.5 11.4853 24.5147 13.5 27 13.5ZM27 13.5C22.0294 13.5 18 17.5294 18 22.5V24.75C18 25.9926 19.0074 27 20.25 27C21.4926 27 22.5 28.0074 22.5 29.25V36C22.5 38.4853 24.5147 40.5 27 40.5C29.4853 40.5 31.5 38.4853 31.5 36V29.25C31.5 28.0074 32.5074 27 33.75 27C34.9926 27 36 25.9926 36 24.75V22.5C36 17.5294 31.9706 13.5 27 13.5Z" fill="#353945"/>
</svg>
