<svg width="48" height="48" viewBox="0 0 48 48" fill="none" xmlns="http://www.w3.org/2000/svg">
<path d="M25.9091 6H22.0909C19.9822 6 18.2727 7.61178 18.2727 9.6C18.2727 11.8752 15.8383 13.3217 13.84 12.2339L13.637 12.1234C11.8108 11.1293 9.47564 11.7193 8.42128 13.4411L6.51218 16.5588C5.45782 18.2807 6.08352 20.4824 7.90974 21.4765C9.90902 22.5648 9.90902 25.4352 7.90974 26.5235C6.08352 27.5176 5.45781 29.7193 6.51218 31.4412L8.42128 34.5589C9.47564 36.2807 11.8108 36.8707 13.637 35.8765L13.84 35.7661C15.8383 34.6783 18.2727 36.1248 18.2727 38.4C18.2727 40.3882 19.9822 42 22.0909 42H25.9091C28.0178 42 29.7273 40.3882 29.7273 38.4C29.7273 36.1248 32.1617 34.6782 34.16 35.766L34.363 35.8765C36.1892 36.8706 38.5244 36.2807 39.5787 34.5588L41.4878 31.4411C42.5422 29.7193 41.9165 27.5176 40.0903 26.5234C38.091 25.4351 38.091 22.5649 40.0903 21.4766C41.9165 20.4824 42.5422 18.2807 41.4878 16.5589L39.5787 13.4412C38.5244 11.7193 36.1892 11.1294 34.363 12.1235L34.16 12.234C32.1617 13.3218 29.7273 11.8752 29.7273 9.6C29.7273 7.61177 28.0178 6 25.9091 6Z" fill="#353945"/>
<circle cx="24" cy="24" r="6" fill="#FFD25E"/>
</svg>
