<svg width="48" height="48" viewBox="0 0 48 48" fill="none" xmlns="http://www.w3.org/2000/svg">
<path d="M8.60931 19.6442C6.86112 18.4787 4.56527 19.9632 4.91068 22.0356L7.44288 37.2288C7.76434 39.1576 9.4331 40.5712 11.3885 40.5712H24H36.6114C38.5668 40.5712 40.2356 39.1576 40.557 37.2288L43.0892 22.0356C43.4346 19.9632 41.1388 18.4787 39.3906 19.6442L34.3683 22.9923C33.1306 23.8175 31.4481 23.3295 30.8439 21.9701L26.1931 11.5058C25.3485 9.60548 22.6514 9.60548 21.8068 11.5058L17.156 21.9701C16.5518 23.3295 14.8693 23.8175 13.6316 22.9923L8.60931 19.6442Z" fill="#353945"/>
</svg>
