<svg width="48" height="48" viewBox="0 0 48 48" fill="none" xmlns="http://www.w3.org/2000/svg">
<path d="M4 32C4 29.7909 5.79086 28 8 28H16C18.2091 28 20 29.7909 20 32V40C20 42.2091 18.2091 44 16 44H8C5.79086 44 4 42.2091 4 40V32Z" fill="#353945"/>
<path d="M4 8C4 5.79086 5.79086 4 8 4H16C18.2091 4 20 5.79086 20 8V16C20 18.2091 18.2091 20 16 20H8C5.79086 20 4 18.2091 4 16V8Z" fill="#353945"/>
<path d="M28 32C28 29.7909 29.7909 28 32 28H40C42.2091 28 44 29.7909 44 32V40C44 42.2091 42.2091 44 40 44H32C29.7909 44 28 42.2091 28 40V32Z" fill="#353945"/>
<path d="M26.2009 16.1425C24.6388 14.5804 24.6388 12.0477 26.2009 10.4857L31.8577 4.8288C33.4198 3.2667 35.9525 3.2667 37.5146 4.8288L43.1714 10.4857C44.7335 12.0478 44.7335 14.5804 43.1714 16.1425L37.5146 21.7994C35.9525 23.3615 33.4198 23.3615 31.8577 21.7994L26.2009 16.1425Z" fill="#FFC83A"/>
</svg>
